<mxfile host="app.diagrams.net" modified="2024-06-15T09:48:53.636Z" agent="Mozilla/5.0 (X11; Linux x86_64; rv:126.0) Gecko/20100101 Firefox/126.0" version="24.0.2" etag="1Z0JNoYiF59YmjqbHLd1" type="github">
  <diagram name="Страница — 1" id="7auJKYPPLaaoN9zY1Qys">
    <mxGraphModel>
      <root>
        <mxCell id="0" />
        <mxCell id="1" parent="0" />
      </root>
    </mxGraphModel>
  </diagram>
</mxfile>
